PathFileType	4	(x/y/z)	S09_M20_T18
DataRate	CameraRate	NumFrames	NumMarkers	Units	OrigDataRate	OrigDataStartFrame	OrigNumFrames
240	240	10	51	mm	240	70	558
Frame#	Time	Sternum			R.Acromium			L.Acromium			Top.Head			R.ASIS			L.ASIS			R.PSIS			L.PSIS			R.Great.Tro			L.Great.Tro			R.Iliac.Crest			L.Iliac.Crest			V.Sacral			R.Thigh.Upper.Post			R.Thigh.Lower.Ant			R.Thigh.Lower.Post			R.Thigh.Upper.Ant			R.Knee.Lat			R.Knee.Med			R.Shank.Upper.Post			R.Shank.Lower.Ant			R.Shank.Lower.Post			R.Shank.Upper.Ant			R.Ankle.Lat			R.Ankle.Med			R.Heel.Upper			R.Heel.Med			R.Heel.Lat			R.Toe.Lat			R.Toe.Med			R.Toe.Tip			L.Thigh.Upper.Post			L.Thigh.Lower.Ant			L.Thigh.Lower.Post			L.Thigh.Upper.Ant			L.Knee.Lat			L.Knee.Med			L.Shank.Upper.Post			L.Shank.Lower.Ant			L.Shank.Lower.Post			L.Shank.Upper.Ant			L.Ankle.Lat			L.Ankle.Med			L.Heel.Upper			L.Heel.Med			L.Heel.Lat			L.Toe.Lat			L.Toe.Med			L.Toe.Tip			Cervical.Spine			Back			
		X1	Y1	Z1	X2	Y2	Z2	X3	Y3	Z3	X4	Y4	Z4	X5	Y5	Z5	X6	Y6	Z6	X7	Y7	Z7	X8	Y8	Z8	X9	Y9	Z9	X10	Y10	Z10	X11	Y11	Z11	X12	Y12	Z12	X13	Y13	Z13	X14	Y14	Z14	X15	Y15	Z15	X16	Y16	Z16	X17	Y17	Z17	X18	Y18	Z18	X19	Y19	Z19	X20	Y20	Z20	X21	Y21	Z21	X22	Y22	Z22	X23	Y23	Z23	X24	Y24	Z24	X25	Y25	Z25	X26	Y26	Z26	X27	Y27	Z27	X28	Y28	Z28	X29	Y29	Z29	X30	Y30	Z30	X31	Y31	Z31	X32	Y32	Z32	X33	Y33	Z33	X34	Y34	Z34	X35	Y35	Z35	X36	Y36	Z36	X37	Y37	Z37	X38	Y38	Z38	X39	Y39	Z39	X40	Y40	Z40	X41	Y41	Z41	X42	Y42	Z42	X43	Y43	Z43	X44	Y44	Z44	X45	Y45	Z45	X46	Y46	Z46	X47	Y47	Z47	X48	Y48	Z48	X49	Y49	Z49	X50	Y50	Z50	X51	Y51	Z51	

70	0.2875	-484.76	1163.3	244.47	-644.75	1401.1	379.66	-648.24	1391.3	70.546	-655.49	1697.8	219.41	-538.61	973.12	355.11	-503.11	995.05	111.87	-746.68	1004.4	249.57	-726.75	1010.8	161.48	-639.1	883.8	412.49	-547.72	907.49	31.259	-632.66	1052.7	392.95	-615.02	1086.8	66.567	-754.5	972.83	195.9	-685	641.13	396.7	-626.42	526.4	386.57	-701.05	549.64	375.6	-617.9	616.02	403.47	-674.52	456.15	380.43	-655.45	433.58	263.76	-852.86	414.08	362.2	-869.62	324.31	357.58	-917.03	375.56	343.84	-810.82	366.24	375.61	-1063.1	254.78	315.57	-1018.7	230.7	238.5	-1085.6	307.43	253.29	-1100.3	287.66	217.09	-1123.5	294.86	277.73	-1107.3	139.21	340.8	-1052.6	96.499	253.04	-1038.4	57.399	303.79	-532.44	638.16	85.412	-424.72	575.39	107.86	-492.74	561.16	116.19	-461.26	649.78	73.411	-417.24	499.87	122.08	-418.08	523.1	256.71	-457.99	369.42	108.18	-397.37	280.09	132.46	-459.19	292.78	116.94	-397.07	357.59	124.89	-453.03	100.72	144.42	-445.76	93.759	238.83	-528.32	69.728	192.82	-516.03	45.176	226.28	-527.11	40.188	165.44	-352.9	44.094	116.33	-317.09	44.087	227.87	-267.63	66.143	169.01	-729.56	1438.2	234.52	-749.06	1164.8	227.65
71	0.29167	-479.57	1164.4	244.28	-639.55	1402.1	379.51	-642.59	1392.7	70.348	-650.05	1699	219.19	-533.58	974.45	354.93	-497.95	995.91	111.64	-741.64	1005.4	248.9	-721.6	1012	160.85	-633.72	884.88	411.92	-542.75	908.34	30.982	-627.93	1053.8	392.39	-609.45	1087.9	66.045	-749.36	973.93	195.19	-676.08	641.61	397.25	-616.08	527.58	387.61	-690.97	549.84	376.45	-608.67	617.35	404.16	-663.29	456.76	381.62	-644.24	434.26	264.71	-841.35	414.96	363.14	-858.36	325.24	358.25	-905.64	376.66	344.63	-799.43	366.96	376.44	-1052	256.66	315.76	-1007.6	232.3	238.75	-1074.8	308.79	253.19	-1089.5	288.68	217.21	-1112.6	296.24	277.87	-1095.2	141.22	341.95	-1040.6	98.174	254.25	-1026.1	59.283	305.26	-529.42	638.82	85.39	-422	575.36	107.73	-490.24	561.58	116.07	-458.05	650.01	73.311	-415.2	499.72	121.96	-415.8	522.96	256.56	-456.75	369.44	108.26	-396.43	279.87	132.33	-458.25	292.82	117.02	-395.82	357.36	124.76	-452.79	100.79	144.52	-445.59	93.714	238.95	-528.18	69.856	192.91	-515.96	45.245	226.33	-527.04	40.359	165.49	-352.82	44.071	116.34	-316.99	43.746	227.89	-267.47	65.672	169.04	-724.11	1439.5	234.26	-743.76	1166	226.89
72	0.29583	-474.43	1165.4	244.11	-634.39	1403.2	379.38	-636.95	1394.1	70.161	-644.62	1700.3	218.98	-528.59	975.77	354.77	-492.83	996.78	111.44	-736.63	1006.4	248.27	-716.5	1013.2	160.27	-628.41	885.99	411.39	-537.85	909.2	30.73	-623.26	1055	391.87	-603.92	1089	65.555	-744.27	975.07	194.53	-667.15	642.17	397.78	-605.74	528.86	388.63	-680.88	550.13	377.27	-599.46	618.77	404.84	-652.03	457.49	382.78	-633.04	435.08	265.59	-829.81	415.82	364.06	-846.99	326.14	358.91	-894.2	377.69	345.42	-787.97	367.69	377.23	-1040.6	258.36	315.96	-996.37	233.73	239.02	-1063.9	309.91	253.09	-1078.7	289.41	217.34	-1101.5	297.33	278.01	-1082.9	143.02	343.17	-1028.3	99.675	255.51	-1013.4	61.105	306.81	-526.48	639.5	85.372	-419.36	575.35	107.58	-487.83	562.01	115.95	-454.94	650.26	73.212	-413.25	499.59	121.82	-413.6	522.84	256.38	-455.57	369.47	108.32	-395.54	279.66	132.19	-457.35	292.87	117.08	-394.63	357.14	124.61	-452.56	100.87	144.61	-445.43	93.681	239.05	-528.04	69.983	192.99	-515.9	45.318	226.37	-526.98	40.53	165.53	-352.74	44.044	116.34	-316.9	43.434	227.9	-267.32	65.227	169.06	-718.68	1440.7	234.01	-738.49	1167.3	226.11
73	0.3	-469.33	1166.5	243.97	-629.26	1404.2	379.25	-631.32	1395.5	69.984	-639.2	1701.5	218.8	-523.63	977.11	354.65	-487.77	997.67	111.27	-731.67	1007.5	247.69	-711.45	1014.5	159.74	-623.14	887.11	410.88	-533.01	910.09	30.499	-618.63	1056.1	391.39	-598.44	1090.1	65.097	-739.23	976.25	193.91	-658.22	642.79	398.31	-595.39	530.24	389.6	-670.77	550.51	378.07	-590.25	620.26	405.51	-640.76	458.32	383.9	-621.83	436.05	266.42	-818.24	416.66	364.96	-835.52	327	359.54	-882.7	378.64	346.22	-776.44	368.44	377.99	-1029.2	259.86	316.18	-984.97	234.98	239.32	-1053	310.77	252.99	-1067.7	289.87	217.47	-1090.4	298.12	278.15	-1070.2	144.59	344.43	-1015.6	100.99	256.85	-1000.4	62.844	308.42	-523.63	640.21	85.355	-416.81	575.37	107.43	-485.48	562.47	115.83	-451.92	650.53	73.111	-411.39	499.48	121.67	-411.48	522.74	256.17	-454.45	369.5	108.35	-394.69	279.47	132.04	-456.51	292.93	117.12	-393.51	356.94	124.44	-452.34	100.94	144.7	-445.27	93.661	239.14	-527.91	70.111	193.07	-515.83	45.395	226.42	-526.92	40.701	165.58	-352.67	44.014	116.33	-316.81	43.15	227.89	-267.17	64.806	169.06	-713.27	1442.1	233.76	-733.27	1168.7	225.33
74	0.30417	-464.27	1167.5	243.87	-624.15	1405.3	379.13	-625.7	1396.9	69.817	-633.78	1702.7	218.63	-518.7	978.44	354.55	-482.75	998.57	111.13	-726.74	1008.6	247.16	-706.43	1015.8	159.25	-617.92	888.26	410.42	-528.24	910.98	30.289	-614.03	1057.3	390.96	-593.01	1091.2	64.668	-734.25	977.47	193.35	-649.29	643.48	398.84	-585.05	531.71	390.54	-660.66	550.99	378.85	-581.05	621.83	406.16	-629.49	459.25	384.99	-610.62	437.15	267.19	-806.66	417.46	365.84	-823.94	327.82	360.16	-871.16	379.51	347.01	-764.85	369.2	378.72	-1017.6	261.17	316.42	-973.43	236.04	239.64	-1042	311.39	252.89	-1056.6	290.05	217.6	-1079.1	298.63	278.3	-1057.3	145.95	345.74	-1002.7	102.12	258.24	-987.01	64.48	310.11	-520.84	640.94	85.332	-414.34	575.41	107.27	-483.2	562.95	115.7	-448.98	650.82	73.006	-409.6	499.39	121.5	-409.43	522.64	255.94	-453.38	369.54	108.35	-393.89	279.3	131.87	-455.71	292.99	117.14	-392.43	356.76	124.26	-452.14	101.02	144.77	-445.11	93.654	239.23	-527.78	70.239	193.14	-515.77	45.476	226.47	-526.86	40.871	165.62	-352.6	43.978	116.33	-316.72	42.893	227.88	-267.03	64.407	169.04	-707.88	1443.4	233.51	-728.09	1170	224.55
75	0.30833	-459.25	1168.6	243.78	-619.08	1406.4	379.02	-620.09	1398.4	69.661	-628.37	1704	218.49	-513.79	979.78	354.46	-477.78	999.49	111	-721.84	1009.8	246.67	-701.47	1017.1	158.81	-612.74	889.42	409.99	-523.54	911.89	30.098	-609.46	1058.5	390.56	-587.64	1092.4	64.267	-729.32	978.72	192.84	-640.37	644.24	399.35	-574.7	533.28	391.44	-650.54	551.55	379.61	-571.86	623.48	406.8	-618.2	460.29	386.03	-599.41	438.39	267.91	-795.07	418.24	366.71	-812.27	328.6	360.76	-859.57	380.28	347.8	-753.2	369.97	379.42	-1005.9	262.26	316.68	-961.73	236.91	240	-1030.9	311.76	252.81	-1045.4	289.96	217.75	-1067.8	298.87	278.44	-1044.2	147.08	347.09	-989.44	103.06	259.7	-973.32	65.996	311.85	-518.12	641.69	85.299	-411.95	575.46	107.1	-480.96	563.45	115.56	-446.13	651.12	72.896	-407.88	499.32	121.31	-407.47	522.56	255.68	-452.37	369.58	108.32	-393.13	279.14	131.69	-454.94	293.06	117.13	-391.41	356.59	124.05	-451.95	101.09	144.83	-444.95	93.658	239.3	-527.65	70.365	193.22	-515.71	45.561	226.51	-526.8	41.041	165.66	-352.53	43.939	116.32	-316.63	42.661	227.86	-266.89	64.03	169.01	-702.5	1444.8	233.27	-722.95	1171.4	223.78
76	0.3125	-454.27	1169.6	243.72	-614.02	1407.5	378.91	-614.49	1399.8	69.514	-622.96	1705.3	218.36	-508.91	981.13	354.38	-472.86	1000.4	110.87	-716.97	1011	246.24	-696.54	1018.4	158.42	-607.59	890.6	409.59	-518.9	912.8	29.925	-604.91	1059.7	390.2	-582.34	1093.5	63.893	-724.44	979.99	192.4	-631.46	645.07	399.87	-564.36	534.95	392.31	-640.43	552.2	380.36	-562.69	625.2	407.41	-606.92	461.43	387.02	-588.18	439.76	268.57	-783.46	418.98	367.54	-800.5	329.33	361.35	-847.94	380.96	348.58	-741.5	370.75	380.09	-994.01	263.15	316.98	-949.88	237.58	240.39	-1019.8	311.88	252.74	-1034	289.62	217.9	-1056.4	298.83	278.6	-1030.9	147.99	348.47	-975.95	103.8	261.22	-959.35	67.379	313.66	-515.46	642.47	85.249	-409.64	575.53	106.91	-478.78	563.97	115.41	-443.35	651.44	72.78	-406.22	499.26	121.11	-405.57	522.5	255.41	-451.39	369.63	108.26	-392.41	279	131.5	-454.22	293.13	117.1	-390.43	356.43	123.84	-451.76	101.17	144.88	-444.8	93.674	239.36	-527.53	70.491	193.29	-515.64	45.648	226.55	-526.75	41.21	165.69	-352.47	43.897	116.3	-316.55	42.452	227.83	-266.76	63.673	168.97	-697.15	1446.1	233.03	-717.86	1172.8	223.02
77	0.31667	-449.33	1170.6	243.68	-609	1408.6	378.8	-608.89	1401.2	69.377	-617.55	1706.6	218.25	-504.04	982.48	354.31	-467.99	1001.4	110.76	-712.12	1012.2	245.86	-691.65	1019.7	158.08	-602.46	891.79	409.22	-514.33	913.72	29.768	-600.37	1060.9	389.88	-577.09	1094.6	63.543	-719.6	981.29	192	-622.55	645.95	400.38	-554.03	536.71	393.13	-630.31	552.94	381.09	-553.53	626.98	408.01	-595.63	462.66	387.97	-576.94	441.25	269.17	-771.85	419.68	368.36	-788.65	330.01	361.93	-836.27	381.55	349.36	-729.74	371.53	380.74	-982.05	263.82	317.3	-937.88	238.06	240.82	-1008.5	311.76	252.69	-1022.5	289.01	218.07	-1044.9	298.52	278.76	-1017.4	148.67	349.88	-962.23	104.35	262.78	-945.12	68.617	315.51	-512.85	643.26	85.18	-407.41	575.62	106.71	-476.63	564.5	115.25	-440.65	651.77	72.657	-404.63	499.22	120.89	-403.76	522.45	255.11	-450.46	369.68	108.18	-391.72	278.86	131.29	-453.53	293.21	117.06	-389.5	356.28	123.61	-451.59	101.24	144.92	-444.64	93.702	239.41	-527.42	70.616	193.36	-515.58	45.739	226.6	-526.7	41.38	165.72	-352.41	43.851	116.28	-316.46	42.265	227.79	-266.63	63.334	168.92	-691.8	1447.5	232.8	-712.8	1174.2	222.27
78	0.32083	-444.43	1171.6	243.66	-603.99	1409.6	378.71	-603.31	1402.6	69.25	-612.14	1707.8	218.16	-499.19	983.84	354.24	-463.15	1002.4	110.64	-707.3	1013.4	245.53	-686.8	1021	157.79	-597.35	893	408.89	-509.82	914.64	29.627	-595.83	1062.1	389.59	-571.91	1095.7	63.215	-714.8	982.6	191.67	-613.66	646.9	400.89	-543.72	538.55	393.91	-620.2	553.76	381.8	-544.4	628.84	408.59	-584.36	463.99	388.86	-565.7	442.85	269.72	-760.25	420.35	369.14	-776.72	330.64	362.51	-824.57	382.05	350.12	-717.95	372.32	381.37	-969.98	264.27	317.65	-925.74	238.34	241.29	-997.16	311.38	252.68	-1010.9	288.16	218.27	-1033.2	297.94	278.95	-1003.7	149.12	351.31	-948.28	104.71	264.39	-930.66	69.704	317.41	-510.29	644.08	85.085	-405.25	575.72	106.5	-474.52	565.04	115.06	-438.01	652.11	72.526	-403.09	499.21	120.65	-402.02	522.41	254.8	-449.57	369.74	108.07	-391.07	278.75	131.08	-452.87	293.29	116.99	-388.61	356.15	123.36	-451.43	101.31	144.96	-444.49	93.74	239.45	-527.32	70.739	193.43	-515.52	45.832	226.64	-526.65	41.549	165.74	-352.35	43.802	116.25	-316.38	42.097	227.75	-266.5	63.012	168.86	-686.48	1448.9	232.57	-707.79	1175.6	221.54
79	0.325	-439.57	1172.6	243.65	-599	1410.7	378.61	-597.75	1404.1	69.134	-606.74	1709.1	218.09	-494.35	985.21	354.16	-458.36	1003.4	110.51	-702.51	1014.7	245.24	-681.99	1022.3	157.54	-592.26	894.23	408.59	-505.38	915.56	29.5	-591.29	1063.4	389.33	-566.8	1096.9	62.908	-710.04	983.91	191.39	-604.77	647.91	401.39	-533.42	540.49	394.66	-610.11	554.65	382.5	-535.29	630.76	409.15	-573.1	465.41	389.7	-554.44	444.56	270.22	-748.64	420.98	369.89	-764.72	331.23	363.08	-812.85	382.45	350.86	-706.12	373.12	381.97	-957.8	264.49	318.04	-913.46	238.43	241.8	-985.69	310.77	252.7	-999.16	287.05	218.5	-1021.5	297.1	279.16	-989.93	149.35	352.76	-934.11	104.88	266.04	-915.98	70.632	319.34	-507.76	644.92	84.964	-403.17	575.84	106.28	-472.45	565.59	114.86	-435.44	652.46	72.388	-401.6	499.2	120.41	-400.35	522.39	254.47	-448.72	369.81	107.95	-390.45	278.64	130.86	-452.24	293.38	116.92	-387.76	356.03	123.11	-451.27	101.38	144.98	-444.34	93.788	239.48	-527.23	70.861	193.5	-515.46	45.926	226.67	-526.59	41.717	165.76	-352.29	43.75	116.22	-316.3	41.948	227.71	-266.38	62.707	168.8	-681.18	1450.4	232.34	-702.81	1177	220.83
